<svg width="32" height="32" viewBox="0 0 32 32" fill="none" xmlns="http://www.w3.org/2000/svg">
<g clip-path="url(#clip0_1_6137)">
<path d="M16.0005 32.0024C24.837 32.0024 32.0005 24.839 32.0005 16.0024C32.0005 7.16588 24.837 0.00244141 16.0005 0.00244141C7.16393 0.00244141 0.000488281 7.16588 0.000488281 16.0024C0.000488281 24.839 7.16393 32.0024 16.0005 32.0024Z" fill="#58BE91"/>
<path d="M21.2305 10.5254C20.4545 8.55344 18.5085 8.37544 16.2425 8.81544L15.4355 6.00244L13.7235 6.49344L14.5095 9.23344C14.0595 9.36144 13.6015 9.50344 13.1465 9.64344L12.3565 6.88544L10.6455 7.37544L11.4505 10.1884C11.0825 10.3024 10.7205 10.4144 10.3655 10.5164L10.3625 10.5064L8.00049 11.1834L8.52549 13.0134C8.52549 13.0134 9.78349 12.6254 9.76849 12.6554C10.4625 12.4564 10.8035 12.7944 10.9685 13.1234L11.8885 16.3274C11.9355 16.3144 11.9985 16.2984 12.0725 16.2874L11.8915 16.3394L13.1785 20.8294C13.2105 21.0564 13.1825 21.4414 12.6985 21.5814C12.7255 21.5944 11.4525 21.9374 11.4525 21.9374L11.6995 24.0804L13.9275 23.4404C14.3425 23.3234 14.7525 23.2134 15.1535 23.1004L15.9705 25.9454L17.6805 25.4554L16.8735 22.6404C17.3322 22.5187 17.7895 22.3921 18.2455 22.2604L19.0475 25.0634L20.7605 24.5724L19.9465 21.7324C22.7775 20.7414 24.5845 19.4384 24.0595 16.6624C23.6375 14.4284 22.3355 13.7504 20.5885 13.8264C21.4365 13.0364 21.8015 11.9684 21.2305 10.5264V10.5254ZM20.5805 17.2954C21.1905 19.4224 17.4805 20.2244 16.3205 20.5584L15.2395 16.7884C16.3995 16.4554 19.9435 15.0784 20.5795 17.2964L20.5805 17.2954ZM18.2585 12.2054C18.8125 14.1404 15.7115 14.7854 14.7445 15.0624L13.7645 11.6434C14.7305 11.3664 17.6795 10.1884 18.2585 12.2064V12.2054Z" fill="white"/>
</g>
<defs>
<clipPath id="clip0_1_6137">
<rect width="32" height="32" fill="white" transform="translate(0.000488281 0.00244141)"/>
</clipPath>
</defs>
</svg>
