<svg width="32" height="32" viewBox="0 0 32 32" fill="none" xmlns="http://www.w3.org/2000/svg">
<g clip-path="url(#clip0_1_4930)">
<path d="M16.0005 32.0088C24.837 32.0088 32.0005 24.8453 32.0005 16.0088C32.0005 7.17223 24.837 0.00878906 16.0005 0.00878906C7.16393 0.00878906 0.000488281 7.17223 0.000488281 16.0088C0.000488281 24.8453 7.16393 32.0088 16.0005 32.0088Z" fill="#C3A634"/>
<path fill-rule="evenodd" clip-rule="evenodd" d="M13.2485 14.6188H17.5625V16.9048H13.2485V21.7228H15.9695C17.0465 21.7228 17.9275 21.5778 18.6135 21.2858C19.2995 20.9948 19.8375 20.5918 20.2285 20.0758C20.6284 19.5392 20.9006 18.9185 21.0245 18.2608C21.169 17.5189 21.2393 16.7646 21.2345 16.0088C21.2393 15.253 21.169 14.4986 21.0245 13.7568C20.9008 13.0991 20.6285 12.4783 20.2285 11.9418C19.8375 11.4258 19.2985 11.0228 18.6135 10.7318C17.9275 10.4398 17.0465 10.2948 15.9695 10.2948H13.2485V14.6198V14.6188ZM10.4825 16.9048H9.00049V14.6198H10.4825V8.00879H17.0315C18.2415 8.00879 19.2885 8.21879 20.1735 8.63579C21.0585 9.05479 21.7805 9.62579 22.3415 10.3508C22.9015 11.0748 23.3185 11.9228 23.5915 12.8938C23.8645 13.8648 24.0005 14.9038 24.0005 16.0088C24.0074 17.061 23.8694 18.1092 23.5905 19.1238C23.3185 20.0938 22.9015 20.9428 22.3405 21.6668C21.7805 22.3918 21.0585 22.9628 20.1735 23.3818C19.2885 23.7998 18.2405 24.0088 17.0315 24.0088H10.4825V16.9048Z" fill="white"/>
</g>
<defs>
<clipPath id="clip0_1_4930">
<rect width="32" height="32" fill="white" transform="translate(0.000488281 0.00878906)"/>
</clipPath>
</defs>
</svg>
