<svg width="25" height="24" viewBox="0 0 25 24" fill="none" xmlns="http://www.w3.org/2000/svg">
<path d="M21.3725 20.5429C20.2555 21.6619 18.9252 22.5445 17.4606 23.1381C15.996 23.7316 14.4271 24.024 12.8473 23.9978C11.2766 24.0282 9.71624 23.7375 8.26159 23.1434C6.80694 22.5494 5.48857 21.6645 4.38705 20.5429C3.25983 19.4438 2.3705 18.1243 1.77439 16.6663C1.17828 15.2084 0.888147 13.6432 0.922033 12.0681C0.922033 8.61906 2.07704 5.74583 4.38705 3.44843C5.48932 2.3284 6.80803 1.44516 8.26265 0.852655C9.71726 0.260147 11.2772 -0.0291883 12.8473 0.00232325C14.4264 -0.0250223 15.995 0.26597 17.4595 0.857987C18.9241 1.45001 20.2548 2.33095 21.3725 3.44843C23.7356 5.74583 24.9172 8.61906 24.9172 12.0681C24.9479 13.65 24.6484 15.2208 24.038 16.6801C23.4276 18.1394 22.5197 19.4551 21.3725 20.5429V20.5429Z" fill="#C8C8C8"/>
<path d="M12.9194 3.77142L8.11938 11.9511L12.9194 9.70952V3.77142Z" fill="#8B8B8B"/>
<path d="M12.9194 9.70952L8.11938 11.9511L12.9194 14.8633V9.70952Z" fill="#393939"/>
<path d="M12.9194 3.77142V9.70952L17.7148 11.9511L12.9194 3.77142Z" fill="#343434"/>
<path d="M12.9194 9.70952V14.8633L17.7148 11.9511L12.9194 9.70952Z" fill="#161616"/>
<path d="M8.11938 12.8847L12.9194 19.8322V15.7993L8.11938 12.8847Z" fill="#8B8B8B"/>
<path d="M17.7194 12.8847L12.9194 15.7993V19.8322L17.7194 12.8847Z" fill="#343434"/>
</svg>
