<svg width="32" height="33" viewBox="0 0 32 33" fill="none" xmlns="http://www.w3.org/2000/svg">
<g clip-path="url(#clip0_1_5186)">
<path d="M16 32.0312C24.8366 32.0312 32 24.8678 32 16.0312C32 7.19469 24.8366 0.03125 16 0.03125C7.16344 0.03125 0 7.19469 0 16.0312C0 24.8678 7.16344 32.0312 16 32.0312Z" fill="#26A17B"/>
<path fill-rule="evenodd" clip-rule="evenodd" d="M17.622 17.5952V17.5933C17.512 17.6013 16.945 17.6353 15.68 17.6353C14.67 17.6353 13.959 17.6053 13.709 17.5933V17.5963C9.821 17.4253 6.919 16.7483 6.919 15.9383C6.919 15.1293 9.821 14.4523 13.709 14.2783V16.9222C13.963 16.9402 14.691 16.9832 15.697 16.9832C16.904 16.9832 17.509 16.9333 17.622 16.9233V14.2803C21.502 14.4532 24.397 15.1302 24.397 15.9383C24.397 16.7483 21.502 17.4232 17.622 17.5952ZM17.622 14.0053V11.6393H23.036V8.03125H8.295V11.6393H13.709V14.0043C9.309 14.2063 6 15.0782 6 16.1222C6 17.1662 9.309 18.0372 13.709 18.2402V25.8223H17.622V18.2382C22.015 18.0362 25.316 17.1652 25.316 16.1222C25.316 15.0792 22.015 14.2083 17.622 14.0053Z" fill="white"/>
</g>
<defs>
<clipPath id="clip0_1_5186">
<rect width="32" height="32" fill="white" transform="translate(0 0.03125)"/>
</clipPath>
</defs>
</svg>
